<svg width="1200" height="900" viewBox="0 0 1200 900" fill="none" xmlns="http://www.w3.org/2000/svg">
  <defs>
    <linearGradient id="hero_bg" x1="104" y1="84" x2="1104" y2="816" gradientUnits="userSpaceOnUse">
      <stop stop-color="#ECFEFF" />
      <stop offset="1" stop-color="#E2E8F0" />
    </linearGradient>
    <linearGradient id="hero_panel" x1="685" y1="190" x2="1015" y2="640" gradientUnits="userSpaceOnUse">
      <stop stop-color="#0F172A" />
      <stop offset="1" stop-color="#1E293B" />
    </linearGradient>
    <linearGradient id="hero_accent" x1="245" y1="218" x2="492" y2="430" gradientUnits="userSpaceOnUse">
      <stop stop-color="#14B8A6" />
      <stop offset="1" stop-color="#22D3EE" />
    </linearGradient>
  </defs>

  <rect width="1200" height="900" rx="44" fill="#F8FAFC" />
  <rect x="48" y="48" width="1104" height="804" rx="36" fill="url(#hero_bg)" />
  <rect x="96" y="96" width="1008" height="708" rx="32" fill="#FFFFFF" fill-opacity="0.72" />

  <rect x="132" y="144" width="420" height="460" rx="30" fill="#FFFFFF" fill-opacity="0.95" />
  <rect x="612" y="144" width="456" height="460" rx="34" fill="url(#hero_panel)" />
  <rect x="132" y="636" width="936" height="96" rx="26" fill="#FFFFFF" fill-opacity="0.88" />

  <rect x="168" y="192" width="160" height="160" rx="28" fill="#F0FDFA" />
  <rect x="190" y="214" width="30" height="30" rx="8" fill="#14B8A6" />
  <rect x="230" y="214" width="30" height="30" rx="8" fill="#5EEAD4" />
  <rect x="270" y="214" width="30" height="30" rx="8" fill="#99F6E4" />
  <rect x="190" y="254" width="30" height="30" rx="8" fill="#2DD4BF" />
  <rect x="230" y="254" width="30" height="30" rx="8" fill="#CCFBF1" />
  <rect x="270" y="254" width="30" height="30" rx="8" fill="#5EEAD4" />
  <rect x="190" y="294" width="30" height="30" rx="8" fill="#99F6E4" />
  <rect x="230" y="294" width="30" height="30" rx="8" fill="#2DD4BF" />
  <rect x="270" y="294" width="30" height="30" rx="8" fill="#14B8A6" />

  <circle cx="426" cy="272" r="100" fill="url(#hero_accent)" fill-opacity="0.18" />
  <path d="M322 444L454 312" stroke="#0F766E" stroke-width="18" stroke-linecap="round" />
  <path d="M404 312H454V362" stroke="#0F766E" stroke-width="18" stroke-linecap="round" stroke-linejoin="round" />
  <path d="M230 462H430" stroke="#94A3B8" stroke-width="9" stroke-linecap="round" />
  <path d="M258 498V462M302 498V462M346 498V462M390 498V462" stroke="#334155" stroke-width="6" stroke-linecap="round" />

  <rect x="656" y="188" width="186" height="116" rx="22" fill="#0B2239" />
  <rect x="680" y="214" width="138" height="20" rx="10" fill="#14B8A6" />
  <rect x="680" y="248" width="92" height="14" rx="7" fill="#5EEAD4" />
  <rect x="680" y="274" width="122" height="10" rx="5" fill="#334155" />

  <rect x="862" y="188" width="160" height="160" rx="26" fill="#12263E" />
  <circle cx="942" cy="268" r="58" fill="#14B8A6" fill-opacity="0.2" />
  <path d="M904 268H980" stroke="#5EEAD4" stroke-width="8" stroke-linecap="round" />
  <path d="M942 230V306" stroke="#5EEAD4" stroke-width="8" stroke-linecap="round" />

  <rect x="656" y="340" width="366" height="220" rx="28" fill="#10243A" />
  <rect x="690" y="378" width="130" height="66" rx="16" fill="#0F766E" />
  <rect x="842" y="378" width="146" height="66" rx="16" fill="#0D9488" fill-opacity="0.85" />
  <rect x="690" y="468" width="298" height="14" rx="7" fill="#1E293B" />
  <rect x="690" y="500" width="252" height="14" rx="7" fill="#334155" />
  <rect x="690" y="532" width="198" height="14" rx="7" fill="#475569" />

  <rect x="170" y="660" width="126" height="48" rx="18" fill="#0F172A" />
  <rect x="314" y="660" width="126" height="48" rx="18" fill="#0F766E" />
  <rect x="458" y="660" width="126" height="48" rx="18" fill="#14B8A6" />
  <rect x="602" y="660" width="126" height="48" rx="18" fill="#0F172A" fill-opacity="0.75" />
  <rect x="746" y="660" width="126" height="48" rx="18" fill="#0F766E" fill-opacity="0.75" />
  <rect x="890" y="660" width="126" height="48" rx="18" fill="#14B8A6" fill-opacity="0.75" />

  <text x="205" y="691" fill="white" font-family="Arial, sans-serif" font-size="24" font-weight="700">px</text>
  <text x="354" y="691" fill="white" font-family="Arial, sans-serif" font-size="24" font-weight="700">in</text>
  <text x="494" y="691" fill="white" font-family="Arial, sans-serif" font-size="24" font-weight="700">cm</text>
  <text x="635" y="691" fill="white" font-family="Arial, sans-serif" font-size="24" font-weight="700">mm</text>
  <text x="782" y="691" fill="white" font-family="Arial, sans-serif" font-size="24" font-weight="700">ft</text>
  <text x="918" y="691" fill="white" font-family="Arial, sans-serif" font-size="24" font-weight="700">rem</text>

  <rect x="912" y="108" width="132" height="54" rx="18" fill="#FFFFFF" fill-opacity="0.92" />
  <text x="948" y="143" fill="#0F172A" font-family="Arial, sans-serif" font-size="22" font-weight="700">300</text>

  <rect x="754" y="108" width="132" height="54" rx="18" fill="#FFFFFF" fill-opacity="0.92" />
  <text x="792" y="143" fill="#0F172A" font-family="Arial, sans-serif" font-size="22" font-weight="700">150</text>

  <rect x="596" y="108" width="132" height="54" rx="18" fill="#FFFFFF" fill-opacity="0.92" />
  <text x="634" y="143" fill="#0F172A" font-family="Arial, sans-serif" font-size="22" font-weight="700">72</text>
</svg>
